<mxfile host="Electron" modified="2023-12-04T08:10:08.889Z" agent="Mozilla/5.0 (X11; Linux x86_64) AppleWebKit/537.36 (KHTML, like Gecko) draw.io/21.2.8 Chrome/116.0.5845.228 Electron/26.3.0 Safari/537.36" etag="TDZrHPOMV8jS-z-cExOF" version="21.2.8" type="device">
  <diagram name="Page-1" id="1rrBglaB3LZoGl5ZTGws">
    <mxGraphModel dx="573" dy="362" grid="1" gridSize="10" guides="0" tooltips="1" connect="1" arrows="1" fold="1" page="1" pageScale="1" pageWidth="850" pageHeight="1100" math="0" shadow="0">
      <root>
        <mxCell id="0" />
        <mxCell id="1" parent="0" />
        <mxCell id="kHUZwUGhzgT3SFyPzzqH-8" value="" style="rounded=0;whiteSpace=wrap;html=1;fillColor=#ffe6cc;strokeColor=none;" parent="1" vertex="1">
          <mxGeometry x="205" y="185" width="33" height="15" as="geometry" />
        </mxCell>
        <mxCell id="kHUZwUGhzgT3SFyPzzqH-1" value="" style="rounded=0;whiteSpace=wrap;html=1;fillColor=#d5e8d4;strokeColor=none;" parent="1" vertex="1">
          <mxGeometry x="90" y="144" width="110" height="16" as="geometry" />
        </mxCell>
        <mxCell id="D6Ms4XIPVmdKDvfIZBXO-1" value="mul %rax" style="rounded=0;whiteSpace=wrap;html=1;fontFamily=mono;align=left;" parent="1" vertex="1">
          <mxGeometry x="90" y="100" width="110" height="20" as="geometry" />
        </mxCell>
        <mxCell id="D6Ms4XIPVmdKDvfIZBXO-3" value="客户代码片段&lt;br&gt;&amp;nbsp;&lt;font style=&quot;font-size: 10px;&quot;&gt;(重复多次)&lt;/font&gt;" style="text;html=1;strokeColor=none;fillColor=none;align=center;verticalAlign=middle;whiteSpace=wrap;rounded=0;" parent="1" vertex="1">
          <mxGeometry x="90" y="70" width="110" height="30" as="geometry" />
        </mxCell>
        <mxCell id="D6Ms4XIPVmdKDvfIZBXO-4" value="膨胀" style="text;html=1;strokeColor=none;fillColor=none;align=center;verticalAlign=middle;whiteSpace=wrap;rounded=0;" parent="1" vertex="1">
          <mxGeometry x="280" y="80" width="50" height="20" as="geometry" />
        </mxCell>
        <mxCell id="D6Ms4XIPVmdKDvfIZBXO-6" value="" style="endArrow=classic;html=1;rounded=0;" parent="1" source="D6Ms4XIPVmdKDvfIZBXO-1" target="D6Ms4XIPVmdKDvfIZBXO-8" edge="1">
          <mxGeometry width="50" height="50" relative="1" as="geometry">
            <mxPoint x="260" y="150" as="sourcePoint" />
            <mxPoint x="300" y="110" as="targetPoint" />
          </mxGeometry>
        </mxCell>
        <mxCell id="D6Ms4XIPVmdKDvfIZBXO-7" value="&lt;font style=&quot;font-size: 10px;&quot; face=&quot;mono&quot;&gt;perf stat&lt;br style=&quot;border-color: var(--border-color);&quot;&gt;翻译运行微测试&lt;br&gt;&lt;/font&gt;" style="text;html=1;strokeColor=none;fillColor=none;align=center;verticalAlign=middle;whiteSpace=wrap;rounded=0;" parent="1" vertex="1">
          <mxGeometry x="200" y="95" width="90" height="30" as="geometry" />
        </mxCell>
        <mxCell id="D6Ms4XIPVmdKDvfIZBXO-8" value="3" style="text;html=1;strokeColor=none;fillColor=none;align=center;verticalAlign=middle;whiteSpace=wrap;rounded=0;" parent="1" vertex="1">
          <mxGeometry x="300" y="100" width="10" height="20" as="geometry" />
        </mxCell>
        <mxCell id="D6Ms4XIPVmdKDvfIZBXO-10" value="" style="endArrow=classic;html=1;rounded=0;" parent="1" source="D6Ms4XIPVmdKDvfIZBXO-9" target="D6Ms4XIPVmdKDvfIZBXO-12" edge="1">
          <mxGeometry width="50" height="50" relative="1" as="geometry">
            <mxPoint x="260" y="180" as="sourcePoint" />
            <mxPoint x="300" y="140" as="targetPoint" />
          </mxGeometry>
        </mxCell>
        <mxCell id="D6Ms4XIPVmdKDvfIZBXO-11" value="&lt;font style=&quot;font-size: 10px;&quot; face=&quot;mono&quot;&gt;perf stat&lt;br style=&quot;border-color: var(--border-color);&quot;&gt;&lt;span style=&quot;&quot;&gt;翻译运行微测试&lt;/span&gt;&lt;/font&gt;" style="text;html=1;strokeColor=none;fillColor=none;align=center;verticalAlign=middle;whiteSpace=wrap;rounded=0;" parent="1" vertex="1">
          <mxGeometry x="200" y="130" width="90" height="30" as="geometry" />
        </mxCell>
        <mxCell id="D6Ms4XIPVmdKDvfIZBXO-12" value="6" style="text;html=1;strokeColor=none;fillColor=none;align=center;verticalAlign=middle;whiteSpace=wrap;rounded=0;" parent="1" vertex="1">
          <mxGeometry x="294" y="130" width="10" height="30" as="geometry" />
        </mxCell>
        <mxCell id="D6Ms4XIPVmdKDvfIZBXO-13" value="&lt;font face=&quot;mono&quot;&gt;mul的语义:&lt;br&gt;&amp;nbsp; reg * %rax =&amp;gt; %rdx:%rax&lt;/font&gt;" style="text;html=1;strokeColor=none;fillColor=none;align=left;verticalAlign=middle;whiteSpace=wrap;rounded=0;" parent="1" vertex="1">
          <mxGeometry x="90" y="170" width="230" height="30" as="geometry" />
        </mxCell>
        <mxCell id="kHUZwUGhzgT3SFyPzzqH-4" value="" style="rounded=0;whiteSpace=wrap;html=1;fillColor=#ffe6cc;strokeColor=none;" parent="1" vertex="1">
          <mxGeometry x="90" y="130" width="25" height="14" as="geometry" />
        </mxCell>
        <mxCell id="kHUZwUGhzgT3SFyPzzqH-6" value="1" style="rounded=0;whiteSpace=wrap;html=1;fillColor=#d5e8d4;strokeColor=none;" parent="1" vertex="1">
          <mxGeometry x="310" y="148" width="10" height="12" as="geometry" />
        </mxCell>
        <mxCell id="kHUZwUGhzgT3SFyPzzqH-7" value="" style="rounded=0;whiteSpace=wrap;html=1;fillColor=#ffe6cc;strokeColor=none;" parent="1" vertex="1">
          <mxGeometry x="316" y="129" width="14" height="12" as="geometry" />
        </mxCell>
        <mxCell id="D6Ms4XIPVmdKDvfIZBXO-9" value="mul %rax&lt;br&gt;add %rdx, %rax" style="rounded=0;whiteSpace=wrap;html=1;fontFamily=mono;align=left;fillColor=none;" parent="1" vertex="1">
          <mxGeometry x="90" y="130" width="110" height="30" as="geometry" />
        </mxCell>
        <mxCell id="kHUZwUGhzgT3SFyPzzqH-9" value="" style="shape=curlyBracket;whiteSpace=wrap;html=1;rounded=1;labelPosition=left;verticalLabelPosition=middle;align=right;verticalAlign=middle;" parent="1" vertex="1">
          <mxGeometry x="304" y="135" width="5" height="20" as="geometry" />
        </mxCell>
        <mxCell id="kHUZwUGhzgT3SFyPzzqH-10" value="3+2" style="rounded=0;whiteSpace=wrap;html=1;fillColor=none;strokeColor=none;" parent="1" vertex="1">
          <mxGeometry x="310" y="129" width="20" height="12" as="geometry" />
        </mxCell>
      </root>
    </mxGraphModel>
  </diagram>
</mxfile>
